<svg xmlns="http://www.w3.org/2000/svg" viewBox="0 0 435 435"><defs><style>.cls-1{fill:#292d3e;}.cls-2{font-size:182.78px;fill:#fff;font-family:MyriadPro-Regular, Myriad Pro;}</style></defs><g id="Layer_2" data-name="Layer 2"><g id="Layer_1-2" data-name="Layer 1"><path class="cls-1" d="M217.5,434.5A217,217,0,0,1,64.06,64.06,217,217,0,1,1,370.94,370.94,215.55,215.55,0,0,1,217.5,434.5Z"/><path d="M217.5,1a216.56,216.56,0,0,1,84.27,416A216.56,216.56,0,0,1,133.23,18,215.11,215.11,0,0,1,217.5,1m0-1C97.38,0,0,97.38,0,217.5S97.38,435,217.5,435,435,337.62,435,217.5,337.62,0,217.5,0Z"/></g><g id="Layer_2-2" data-name="Layer 2"><text class="cls-2" transform="translate(38.47 271.15)">&lt; / &gt;</text></g></g></svg>